<svg xmlns="http://www.w3.org/2000/svg" version="1.1" xmlns:xlink="http://www.w3.org/1999/xlink"
    xmlns:svgjs="http://svgjs.dev/svgjs" width="1000" height="131" viewBox="0 0 1000 131">
    <svg viewBox="0 0 396 52" data-background-color="#ffffff"
        preserveAspectRatio="xMidYMid meet" height="131" width="1000"
        xmlns="http://www.w3.org/2000/svg" xmlns:xlink="http://www.w3.org/1999/xlink">
        <g id="tight-bounds" transform="matrix(1,0,0,1,0.2400000000000091,-0.17637226736874823)">
            <svg viewBox="0 0 395.52 52.35274453473751" height="52.35274453473751"
                width="395.52">
                <g>
                    <svg viewBox="0 0 485.64913669789803 64.28262840579711"
                        height="52.35274453473751" width="395.52">
                        <g>
                            <rect width="4.194698820048696" height="46.74677391304348"
                                x="74.95355091437108" y="8.767927246376818" fill="#ffffff"
                                opacity="1" stroke-width="0" stroke="transparent"
                                fill-opacity="1" class="rect-bu-0"
                                data-fill-palette-color="primary" rx="1%" id="bu-0"
                                data-palette-color="#113c55"></rect>
                        </g>
                        <g transform="matrix(1,0,0,1,90.12913669789805,8.884212753623192)">
                            <svg viewBox="0 0 395.52 46.51420289855073"
                                height="46.51420289855073" width="395.52">
                                <g>
                                    <svg viewBox="0 0 395.52 46.51420289855073"
                                        height="46.51420289855073" width="395.52">
                                        <g>
                                            <svg viewBox="0 0 395.52 46.51420289855073"
                                                height="46.51420289855073" width="395.52">
                                                <g transform="matrix(1,0,0,1,0,0)">
                                                    <svg width="395.52"
                                                        viewBox="0.2 -37.75 345.22 38.95"
                                                        height="46.51420289855073"
                                                        data-palette-color="#113c55">
                                                        <g class="undefined-text-0"
                                                            data-fill-palette-color="primary"
                                                            id="text-0">
                                                            <path
                                                                d="M6.15-1.2Q4.75-0.95 3.1-0.6 1.45-0.25 0.2 0.05L0.2 0.05Q0.8-2.1 1.38-4.78 1.95-7.45 2.53-10.4 3.1-13.35 3.63-16.38 4.15-19.4 4.65-22.2L4.65-22.2Q5.7-28.85 6.75-35.95L6.75-35.95 23.5-36.8 22.05-30.65 14.2-30.65 12.65-21.75Q14.2-21.8 15.6-21.8L15.6-21.8Q16.75-21.8 17.95-21.8 19.15-21.8 19.8-21.85L19.8-21.85Q19.65-20.45 19.43-19.1 19.2-17.75 19-16.4L19-16.4Q18.35-16.4 17.15-16.43 15.95-16.45 14.68-16.5 13.4-16.55 11.8-16.6L11.8-16.6 9.5-1.85Q7.8-1.55 6.15-1.2L6.15-1.2ZM25.35-2.05L17.25 0.05Q18.6-6.6 19.85-12.95L19.85-12.95Q20.3-15.65 20.85-18.57 21.4-21.5 21.87-24.38 22.35-27.25 22.77-29.93 23.2-32.6 23.45-34.8L23.45-34.8Q26.3-35.7 29.6-36.13 32.9-36.55 36.15-36.55L36.15-36.55Q38.1-36.55 39.37-36.1 40.65-35.65 41.37-34.83 42.1-34 42.4-32.9 42.7-31.8 42.7-30.45L42.7-30.45Q42.7-28.45 42-26.53 41.3-24.6 40.12-22.88 38.95-21.15 37.42-19.73 35.9-18.3 34.15-17.4L34.15-17.4Q35.05-15.4 36.07-13.03 37.1-10.65 38-8.5L38-8.5Q39-6 40.05-3.5L40.05-3.5 32.3-0.8Q31.3-4.25 30.5-7.3L30.5-7.3Q30.15-8.55 29.8-9.88 29.45-11.2 29.15-12.38 28.85-13.55 28.65-14.45 28.45-15.35 28.4-15.85L28.4-15.85 27.75-15.65Q27.45-14.05 27.02-11.75 26.6-9.45 26.25-7.3L26.25-7.3Q25.8-4.75 25.35-2.05L25.35-2.05ZM30.6-29.6L29-21.65Q29.95-21.75 31.32-22.45 32.7-23.15 33.95-24.13 35.2-25.1 36.1-26.15 37-27.2 37-28L37-28Q37-28.55 36.65-28.88 36.3-29.2 35.67-29.38 35.05-29.55 34.3-29.6 33.55-29.65 32.75-29.65L32.75-29.65Q32.2-29.65 31.62-29.63 31.05-29.6 30.6-29.6L30.6-29.6ZM55.8-2.45L39.65 0.05 46.2-35.5 62-36.85Q61.65-35.75 61.4-34.6L61.4-34.6Q61.15-33.65 60.92-32.63 60.7-31.6 60.55-30.8L60.55-30.8Q60.05-30.75 59.12-30.73 58.2-30.7 57.15-30.68 56.1-30.65 55.02-30.65 53.95-30.65 53.15-30.65L53.15-30.65 51.4-21.7Q52.95-21.8 54.3-21.85L54.3-21.85Q55.4-21.9 56.55-21.9 57.7-21.9 58.25-21.95L58.25-21.95Q58.05-20.55 57.87-19.2 57.7-17.85 57.45-16.45L57.45-16.45Q56.95-16.4 55.82-16.38 54.7-16.35 53.55-16.3L53.55-16.3Q52.25-16.25 50.7-16.2L50.7-16.2 49-7 56.3-8.15 55.8-2.45ZM72.84-2.45L56.69 0.05 63.24-35.5 79.04-36.85Q78.69-35.75 78.44-34.6L78.44-34.6Q78.19-33.65 77.97-32.63 77.74-31.6 77.59-30.8L77.59-30.8Q77.09-30.75 76.17-30.73 75.24-30.7 74.19-30.68 73.14-30.65 72.07-30.65 70.99-30.65 70.19-30.65L70.19-30.65 68.44-21.7Q69.99-21.8 71.34-21.85L71.34-21.85Q72.44-21.9 73.59-21.9 74.74-21.9 75.29-21.95L75.29-21.95Q75.09-20.55 74.92-19.2 74.74-17.85 74.49-16.45L74.49-16.45Q73.99-16.4 72.87-16.38 71.74-16.35 70.59-16.3L70.59-16.3Q69.29-16.25 67.74-16.2L67.74-16.2 66.04-7 73.34-8.15 72.84-2.45Z"
                                                                fill="#ffffff"
                                                                data-fill-palette-color="primary"></path>
                                                            <path
                                                                d="M106.24-19.05Q105.89-13.95 104.24-10.18 102.59-6.4 100.27-3.85 97.94-1.3 95.27-0.05 92.59 1.2 90.19 1.2L90.19 1.2Q88.34 1.2 86.67 0.4 84.99-0.4 83.77-2.02 82.54-3.65 81.84-6.1 81.14-8.55 81.14-11.85L81.14-11.85Q81.14-18.3 82.99-23.1 84.84-27.9 87.67-31.1 90.49-34.3 93.72-35.85 96.94-37.4 99.74-37.4L99.74-37.4Q101.74-37.4 103.22-36.7 104.69-36 105.64-34.83 106.59-33.65 107.02-32.08 107.44-30.5 107.44-28.75L107.44-28.75 100.59-27.45Q100.14-29.45 99.39-30.3 98.64-31.15 97.69-31.15L97.69-31.15Q96.44-31.15 94.94-29.38 93.44-27.6 92.14-24.8 90.84-22 89.94-18.65 89.04-15.3 88.94-12.05L88.94-12.05Q88.94-8.95 89.87-7.63 90.79-6.3 92.24-6.3L92.24-6.3Q93.24-6.3 94.32-6.8 95.39-7.3 96.24-8.22 97.09-9.15 97.67-10.38 98.24-11.6 98.29-13.05L98.29-13.05 92.94-12.25 93.89-17.2Q96.24-17.5 98.49-17.8L98.49-17.8Q100.39-18.05 102.52-18.4 104.64-18.75 106.24-19.05L106.24-19.05ZM122.39-1Q121.14-0.8 119.64-0.55 118.14-0.3 116.94-0.1L116.94-0.1Q117.14-1.75 117.34-3.35L117.34-3.35Q117.49-4.75 117.61-6.15 117.74-7.55 117.84-8.55L117.84-8.55 113.49-8.55 111.49-1.35Q110.39-1.2 108.89-1.03 107.39-0.85 106.09-0.7L106.09-0.7Q104.49-0.5 102.94-0.3L102.94-0.3Q104.94-6.95 106.89-13.4L106.89-13.4Q107.69-16.1 108.56-19.05 109.44-22 110.31-24.93 111.19-27.85 111.99-30.55 112.79-33.25 113.39-35.5L113.39-35.5Q116.79-35.75 120.31-36.1 123.84-36.45 127.19-37.05L127.19-37.05Q127.04-35.45 126.86-33.08 126.69-30.7 126.54-27.9 126.39-25.1 126.24-22.05 126.09-19 125.94-16.05L125.94-16.05Q125.69-9.15 125.39-1.4L125.39-1.4Q123.89-1.15 122.39-1L122.39-1ZM117.79-26.1L114.69-13.55Q114.89-13.55 115.41-13.58 115.94-13.6 116.51-13.63 117.09-13.65 117.59-13.68 118.09-13.7 118.29-13.75L118.29-13.75Q118.29-14.05 118.36-14.78 118.44-15.5 118.51-16.43 118.59-17.35 118.69-18.45 118.79-19.55 118.89-20.6L118.89-20.6Q119.09-23.15 119.39-26.1L119.39-26.1 119.69-30.45 118.94-30.4 117.79-26.1ZM132.39-0.85L124.14-0.3Q126.34-6.95 128.34-13.35L128.34-13.35Q129.19-16.05 130.09-19 130.99-21.95 131.89-24.85 132.79-27.75 133.56-30.45 134.34-33.15 134.94-35.45L134.94-35.45Q137.69-35.45 140.14-35.75 142.59-36.05 145.44-36.3L145.44-36.3Q145.29-35.2 145.11-33.83 144.94-32.45 144.71-30.95 144.49-29.45 144.24-27.85 143.99-26.25 143.63-23.75 143.29-21.25 142.69-17.5L142.69-17.5 143.34-17.5Q144.79-21.3 145.74-23.83 146.69-26.35 147.29-27.95 147.88-29.55 148.51-31.08 149.13-32.6 149.71-33.98 150.29-35.35 150.79-36.4L150.79-36.4Q152.04-36.5 153.13-36.65 154.24-36.8 155.34-36.98 156.44-37.15 157.56-37.33 158.69-37.5 160.04-37.75L160.04-37.75Q159.54-34.85 159.09-31.8 158.63-28.75 158.29-25.73 157.94-22.7 157.61-19.75 157.29-16.8 157.04-14.15L157.04-14.15Q156.44-7.95 155.99-2.05L155.99-2.05 147.29-0.5Q147.29-0.75 147.36-1.85 147.44-2.95 147.56-4.55 147.69-6.15 147.91-8.1 148.13-10.05 148.36-12 148.59-13.95 148.84-15.78 149.09-17.6 149.34-18.9L149.34-18.9 148.88-18.9Q148.19-16.8 147.34-14.48 146.49-12.15 145.61-9.75 144.74-7.35 143.88-5.05 143.04-2.75 142.39-0.65L142.39-0.65Q140.64-0.6 139.39-0.53 138.14-0.45 136.49-0.35L136.49-0.35 138.09-18.9 137.34-18.9Q137.24-18.25 136.84-16.73 136.44-15.2 135.91-13.23 135.39-11.25 134.79-9.13 134.19-7 133.66-5.18 133.14-3.35 132.79-2.18 132.44-1 132.39-0.85L132.39-0.85ZM173.13-2.45L156.98 0.05 163.53-35.5 179.33-36.85Q178.98-35.75 178.73-34.6L178.73-34.6Q178.48-33.65 178.26-32.63 178.03-31.6 177.88-30.8L177.88-30.8Q177.38-30.75 176.46-30.73 175.53-30.7 174.48-30.68 173.43-30.65 172.36-30.65 171.28-30.65 170.48-30.65L170.48-30.65 168.73-21.7Q170.28-21.8 171.63-21.85L171.63-21.85Q172.73-21.9 173.88-21.9 175.03-21.9 175.58-21.95L175.58-21.95Q175.38-20.55 175.21-19.2 175.03-17.85 174.78-16.45L174.78-16.45Q174.28-16.4 173.16-16.38 172.03-16.35 170.88-16.3L170.88-16.3Q169.58-16.25 168.03-16.2L168.03-16.2 166.33-7 173.63-8.15 173.13-2.45ZM195.78-12.35Q195.78-9.55 194.71-7.28 193.63-5 191.81-3.35 189.98-1.7 187.51-0.8 185.03 0.1 182.18 0.1L182.18 0.1Q180.18 0.1 178.18-0.98 176.18-2.05 174.33-4.4L174.33-4.4 178.03-11.65Q178.38-11 179.08-10.33 179.78-9.65 180.66-9.15 181.53-8.65 182.41-8.33 183.28-8 183.98-8L183.98-8Q184.58-8 185.23-8.2 185.88-8.4 186.43-8.8 186.98-9.2 187.31-9.73 187.63-10.25 187.63-10.95L187.63-10.95Q187.63-12.15 186.86-13.18 186.08-14.2 184.93-15.13 183.78-16.05 182.43-17 181.08-17.95 179.96-19 178.83-20.05 178.03-21.35 177.23-22.65 177.23-24.25L177.23-24.25Q177.23-26.85 178.78-29.1 180.33-31.35 182.66-32.98 184.98-34.6 187.73-35.55 190.48-36.5 192.93-36.5L192.93-36.5Q194.28-36.5 195.48-36.18 196.68-35.85 197.56-35.13 198.43-34.4 198.96-33.3 199.48-32.2 199.48-30.55L199.48-30.55Q199.48-29.85 199.36-29.15 199.23-28.45 199.13-27.65L199.13-27.65 191.88-25.55Q191.98-25.95 192.06-26.35 192.13-26.75 192.13-27.15L192.13-27.15Q192.13-28.65 191.61-29.33 191.08-30 190.23-30L190.23-30Q189.83-30 189.26-29.7 188.68-29.4 188.11-28.93 187.53-28.45 187.13-27.8 186.73-27.15 186.73-26.4L186.73-26.4Q186.73-25.2 187.41-24.4 188.08-23.6 189.08-22.9 190.08-22.2 191.26-21.48 192.43-20.75 193.43-19.6 194.43-18.45 195.11-16.73 195.78-15 195.78-12.35L195.78-12.35Z"
                                                                fill="#ffffff"
                                                                data-fill-palette-color="primary"></path>
                                                            <path
                                                                d="M220.83-10.75Q219.63-8 218.16-5.98 216.68-3.95 215.06-2.58 213.43-1.2 211.78-0.55 210.13 0.1 208.58 0.1L208.58 0.1Q207.03 0.1 205.76-0.6 204.48-1.3 203.53-2.7 202.58-4.1 202.01-6.15 201.43-8.2 201.43-10.95L201.43-10.95Q201.43-15.65 202.73-20.23 204.03-24.8 206.38-28.45 208.73-32.1 211.96-34.33 215.18-36.55 219.08-36.55L219.08-36.55Q220.28-36.55 221.38-36.05 222.48-35.55 223.28-34.65 224.08-33.75 224.56-32.45 225.03-31.15 225.03-29.55L225.03-29.55Q225.03-29.25 225.03-28.93 225.03-28.6 224.98-28.25L224.98-28.25 218.43-26.5Q217.83-27.75 217.03-27.75L217.03-27.75Q216.23-27.75 215.36-26.83 214.48-25.9 213.63-24.43 212.78-22.95 211.98-21.13 211.18-19.3 210.58-17.45 209.98-15.6 209.61-13.93 209.23-12.25 209.23-11.2L209.23-11.2Q209.23-9.6 209.66-8.95 210.08-8.3 210.78-8.3L210.78-8.3Q211.33-8.3 212.03-8.72 212.73-9.15 213.33-9.83 213.93-10.5 214.43-11.35 214.93-12.2 215.13-13.05L215.13-13.05 220.83-10.75ZM238.58-1Q237.33-0.8 235.83-0.55 234.33-0.3 233.13-0.1L233.13-0.1Q233.33-1.75 233.53-3.35L233.53-3.35Q233.68-4.75 233.8-6.15 233.93-7.55 234.03-8.55L234.03-8.55 229.68-8.55 227.68-1.35Q226.58-1.2 225.08-1.03 223.58-0.85 222.28-0.7L222.28-0.7Q220.68-0.5 219.13-0.3L219.13-0.3Q221.13-6.95 223.08-13.4L223.08-13.4Q223.88-16.1 224.75-19.05 225.63-22 226.5-24.93 227.38-27.85 228.18-30.55 228.98-33.25 229.58-35.5L229.58-35.5Q232.98-35.75 236.5-36.1 240.03-36.45 243.38-37.05L243.38-37.05Q243.23-35.45 243.05-33.08 242.88-30.7 242.73-27.9 242.58-25.1 242.43-22.05 242.28-19 242.13-16.05L242.13-16.05Q241.88-9.15 241.58-1.4L241.58-1.4Q240.08-1.15 238.58-1L238.58-1ZM233.98-26.1L230.88-13.55Q231.08-13.55 231.6-13.58 232.13-13.6 232.7-13.63 233.28-13.65 233.78-13.68 234.28-13.7 234.48-13.75L234.48-13.75Q234.48-14.05 234.55-14.78 234.63-15.5 234.7-16.43 234.78-17.35 234.88-18.45 234.98-19.55 235.08-20.6L235.08-20.6Q235.28-23.15 235.58-26.1L235.58-26.1 235.88-30.45 235.13-30.4 233.98-26.1ZM255.33-1.35L246.33 0.05Q247.48-5.45 248.53-10.8L248.53-10.8Q248.98-13.05 249.43-15.5 249.88-17.95 250.3-20.33 250.73-22.7 251.05-24.93 251.38-27.15 251.63-29L251.63-29Q250.48-29.15 249.3-29.1 248.13-29.05 246.98-29.4L246.98-29.4Q247.03-30.2 247.03-31.25 247.03-32.3 247.08-33.35L247.08-33.35Q247.13-34.5 247.18-35.8L247.18-35.8Q248.48-35.7 249.78-35.65 251.08-35.6 252.38-35.6L252.38-35.6Q254.93-35.6 257.3-35.73 259.68-35.85 261.7-36.02 263.73-36.2 265.68-36.45L265.68-36.45 265.13-33.75Q264.88-32.6 264.65-31.4 264.43-30.2 264.23-29.35L264.23-29.35Q263.13-29.05 262-28.93 260.88-28.8 259.78-28.6L259.78-28.6Q259.43-26.9 259.03-24.83 258.63-22.75 258.25-20.53 257.88-18.3 257.53-16 257.18-13.7 256.83-11.6L256.83-11.6Q256.03-6.65 255.33-1.35L255.33-1.35ZM281.27-10.75Q280.07-8 278.6-5.98 277.12-3.95 275.5-2.58 273.87-1.2 272.22-0.55 270.57 0.1 269.02 0.1L269.02 0.1Q267.47 0.1 266.2-0.6 264.92-1.3 263.97-2.7 263.02-4.1 262.45-6.15 261.87-8.2 261.87-10.95L261.87-10.95Q261.87-15.65 263.17-20.23 264.47-24.8 266.82-28.45 269.17-32.1 272.4-34.33 275.62-36.55 279.52-36.55L279.52-36.55Q280.72-36.55 281.82-36.05 282.92-35.55 283.72-34.65 284.52-33.75 285-32.45 285.47-31.15 285.47-29.55L285.47-29.55Q285.47-29.25 285.47-28.93 285.47-28.6 285.42-28.25L285.42-28.25 278.87-26.5Q278.27-27.75 277.47-27.75L277.47-27.75Q276.67-27.75 275.8-26.83 274.92-25.9 274.07-24.43 273.22-22.95 272.42-21.13 271.62-19.3 271.02-17.45 270.42-15.6 270.05-13.93 269.67-12.25 269.67-11.2L269.67-11.2Q269.67-9.6 270.1-8.95 270.52-8.3 271.22-8.3L271.22-8.3Q271.77-8.3 272.47-8.72 273.17-9.15 273.77-9.83 274.37-10.5 274.87-11.35 275.37-12.2 275.57-13.05L275.57-13.05 281.27-10.75ZM288.77-1.5L281.07 0.1Q282.37-6.8 283.62-13.45L283.62-13.45Q284.07-16.25 284.62-19.28 285.17-22.3 285.67-25.25 286.17-28.2 286.62-30.98 287.07-33.75 287.42-36.05L287.42-36.05 295.52-36.6Q294.67-33.1 293.85-29.3 293.02-25.5 292.32-21.9L292.32-21.9 297.27-22.45Q297.97-26 298.52-29.33 299.07-32.65 299.97-36.2L299.97-36.2Q301.12-36.4 302.52-36.52 303.92-36.65 305.12-36.75 306.32-36.85 307.15-36.93 307.97-37 307.97-37L307.97-37Q307.27-34.75 306.65-32.08 306.02-29.4 305.42-26.53 304.82-23.65 304.27-20.7 303.72-17.75 303.27-15.1L303.27-15.1Q302.17-8.75 301.22-2.1L301.22-2.1 293.42-1.2Q294.07-4.2 294.57-7.05L294.57-7.05Q295.07-9.45 295.6-12.05 296.12-14.65 296.42-16.5L296.42-16.5 291.57-16.05Q291.22-14.15 290.75-11.65 290.27-9.15 289.87-6.9L289.87-6.9Q289.32-4.2 288.77-1.5L288.77-1.5ZM319.27-2.45L303.12 0.05 309.67-35.5 325.47-36.85Q325.12-35.75 324.87-34.6L324.87-34.6Q324.62-33.65 324.39-32.63 324.17-31.6 324.02-30.8L324.02-30.8Q323.52-30.75 322.59-30.73 321.67-30.7 320.62-30.68 319.57-30.65 318.49-30.65 317.42-30.65 316.62-30.65L316.62-30.65 314.87-21.7Q316.42-21.8 317.77-21.85L317.77-21.85Q318.87-21.9 320.02-21.9 321.17-21.9 321.72-21.95L321.72-21.95Q321.52-20.55 321.34-19.2 321.17-17.85 320.92-16.45L320.92-16.45Q320.42-16.4 319.29-16.38 318.17-16.35 317.02-16.3L317.02-16.3Q315.72-16.25 314.17-16.2L314.17-16.2 312.47-7 319.77-8.15 319.27-2.45ZM328.07-2.05L319.97 0.05Q321.32-6.6 322.57-12.95L322.57-12.95Q323.02-15.65 323.57-18.57 324.12-21.5 324.59-24.38 325.07-27.25 325.49-29.93 325.92-32.6 326.17-34.8L326.17-34.8Q329.02-35.7 332.32-36.13 335.62-36.55 338.87-36.55L338.87-36.55Q340.82-36.55 342.09-36.1 343.37-35.65 344.09-34.83 344.82-34 345.12-32.9 345.42-31.8 345.42-30.45L345.42-30.45Q345.42-28.45 344.72-26.53 344.02-24.6 342.84-22.88 341.67-21.15 340.14-19.73 338.62-18.3 336.87-17.4L336.87-17.4Q337.77-15.4 338.79-13.03 339.82-10.65 340.72-8.5L340.72-8.5Q341.72-6 342.77-3.5L342.77-3.5 335.02-0.8Q334.02-4.25 333.22-7.3L333.22-7.3Q332.87-8.55 332.52-9.88 332.17-11.2 331.87-12.38 331.57-13.55 331.37-14.45 331.17-15.35 331.12-15.85L331.12-15.85 330.47-15.65Q330.17-14.05 329.74-11.75 329.32-9.45 328.97-7.3L328.97-7.3Q328.52-4.75 328.07-2.05L328.07-2.05ZM333.32-29.6L331.72-21.65Q332.67-21.75 334.04-22.45 335.42-23.15 336.67-24.13 337.92-25.1 338.82-26.15 339.72-27.2 339.72-28L339.72-28Q339.72-28.55 339.37-28.88 339.02-29.2 338.39-29.38 337.77-29.55 337.02-29.6 336.27-29.65 335.47-29.65L335.47-29.65Q334.92-29.65 334.34-29.63 333.77-29.6 333.32-29.6L333.32-29.6Z"
                                                                fill="#ffffff"
                                                                data-fill-palette-color="primary"></path>
                                                        </g>
                                                    </svg>
                                                </g>
                                            </svg>
                                        </g>
                                    </svg>
                                </g>
                            </svg>
                        </g>
                        <g>
                            <svg viewBox="0 0 63.972663950892816 64.28262840579711"
                                height="64.28262840579711" width="63.972663950892816">
                                <g>
                                    <svg xmlns="http://www.w3.org/2000/svg"
                                        xmlns:xlink="http://www.w3.org/1999/xlink" version="1.1"
                                        x="0" y="0" viewBox="5.214 5 89.572 90.006"
                                        enable-background="new 0 0 100 100" xml:space="preserve"
                                        height="64.28262840579711" width="63.972663950892816"
                                        class="icon-icon-0" data-fill-palette-color="accent"
                                        id="icon-0"><path d="M92.854 20.7l-7.541 22.31c-0.154 0.449-0.643 0.691-1.091 0.539L69.42 38.497c-0.216-0.074-0.39-0.229-0.491-0.437-0.103-0.205-0.117-0.438-0.044-0.657l0.002-0.003 7.54-22.306c0.074-0.22 0.227-0.395 0.434-0.496 0.204-0.103 0.437-0.119 0.656-0.043l14.8 5.052C92.764 19.76 93.004 20.249 92.854 20.7zM64.569 36.064h2.453l7.329-21.677c0.264-0.777 0.808-1.403 1.539-1.764 0.73-0.363 1.559-0.417 2.329-0.152l2.837 0.968v-1.798c0-0.474-0.383-0.862-0.856-0.862H64.569c-0.474 0-0.858 0.388-0.858 0.862v23.563C63.711 35.678 64.096 36.064 64.569 36.064zM68.717 40.582c-0.771-0.262-1.396-0.812-1.755-1.545-0.12-0.248-0.204-0.505-0.255-0.77h-2.138c-1.681 0-3.05-1.375-3.05-3.062V16.407c-8.033 2.922-9.144 3.328-9.343 3.382l0.092-0.017c-0.212 0.079-0.387 0.237-0.482 0.446-0.099 0.207-0.108 0.443-0.029 0.659l7.979 22.154c0.079 0.216 0.236 0.389 0.444 0.488 0.207 0.096 0.44 0.106 0.656 0.029l8.021-2.917C68.772 40.599 68.717 40.582 68.717 40.582zM8.06 63.499l11.835-9.781c1.109-1.027 3.124-1.625 4.826-1.655 0.426-0.027 0.853 0 1.192 0.057l13.452 2.424c0.88 0.171 2.158 0.914 2.385 2.053v0.628c-0.084 0.484-0.397 1.054-0.993 1.653l-9.651 9.583c-2.184 2.083-4.143 2.966-6.385 2.795-0.541-0.028-1.107-0.142-1.702-0.313L8.26 66.893C6.415 66.379 6.754 64.612 8.06 63.499zM20.975 62.53c0.482 0.74 2.185 0.854 3.746 0.542 0.482-0.085 0.965-0.2 1.391-0.4 1.759-0.656 3.292-2.225 2.044-3.42-0.768-0.714-2.185-0.685-3.435-0.429-0.795 0.199-1.504 0.429-1.988 0.656C21.512 60.076 20.32 61.533 20.975 62.53zM27.445 92.903l-0.767-0.315-3.546-1.424-7.098-2.853h-0.027l-0.937-0.371c-1.164-0.456-2.328-1.996-3.038-3.422-0.084-0.199-0.141-0.341-0.227-0.514L6.869 71.571c-0.369-0.885-1.76-4.535 1.618-3.452l3.546 1.027 3.975 1.084h0.027l6.188 1.74c0.311 0.084 0.624 0.199 0.909 0.285 1.785 0.54 2.808 1.056 3.546 2.023 0.597 0.827 0.995 1.968 1.504 3.737l3.776 12.947c0.056 0.229 0.084 0.429 0.084 0.601v0.285C31.929 93.702 28.978 93.529 27.445 92.903zM12.033 75.82c0.85 0.543 1.816 0.884 2.385 0.399 0.964-0.826-0.056-2.481-1.078-3.736-0.397-0.483-0.824-0.912-1.307-1.227-0.794-0.57-1.674-0.827-2.355-0.37-1.051 0.685 0.144 2.909 0.938 3.792C10.928 75.021 11.466 75.478 12.033 75.82zM17.087 83.15c-0.313-0.343-0.682-0.658-1.052-0.914 0 0 0 0-0.027 0-0.796-0.571-1.619-0.885-2.271-0.429-0.938 0.628 0.312 2.653 1.135 3.422 0.285 0.258 0.712 0.628 1.137 0.913 0.027 0 0.027 0 0.027 0 0.795 0.542 1.73 0.913 2.299 0.459C19.214 85.915 18.165 84.206 17.087 83.15zM23.133 79.584c0.965 0.541 2.042 0.826 2.694 0.284 1.078-0.913-0.027-2.595-1.221-4.049-0.427-0.514-0.937-0.97-1.474-1.253-0.909-0.544-1.875-0.714-2.643-0.202-1.219 0.77 0.172 2.937 0.995 3.907C21.826 78.699 22.448 79.212 23.133 79.584zM27.842 86.857c-0.312-0.255-0.708-0.57-1.163-0.828-0.879-0.484-1.818-0.799-2.499-0.313-1.077 0.685 0.284 2.737 1.109 3.564 0.341 0.286 0.822 0.685 1.39 1.027 0.907 0.515 1.959 0.884 2.555 0.427C30.188 90.005 28.751 87.655 27.842 86.857zM48.079 75.021v0.543c-0.027 1.911-0.682 3.537-2.242 5.417l-1.646 1.939-2.215 2.652-2.667 3.196-2.1 2.48c-0.2 0.257-0.397 0.486-0.598 0.627-0.993 0.883-2.072 0.571-2.837-0.371-0.426-0.542-0.796-1.227-1.022-2.081l-3.634-12.806c-0.169-0.57-0.254-1.141-0.284-1.712v-0.483c0.058-1.482 0.682-2.996 2.045-4.393l2.896-2.824 2.837-2.821 2.697-2.683 2.214-2.195c0.143-0.171 0.312-0.285 0.453-0.428 0.795-0.571 1.561-0.656 2.215-0.315 0.707 0.374 1.248 1.171 1.446 2.31l2.157 11.552C47.965 73.479 48.079 74.279 48.079 75.021zM35.705 75.393c0.537-1.74 0.708-4.192-0.711-4.822-0.425-0.169-0.822-0.112-1.219 0.115-0.965 0.515-1.789 1.94-2.072 2.825-0.369 1.196-0.568 3.905 0.794 4.448 0.425 0.141 0.853 0.085 1.278-0.058C34.598 77.502 35.335 76.533 35.705 75.393zM37.775 82.178c-0.397-0.197-0.766-0.142-1.163 0.115-0.794 0.543-1.477 1.826-1.789 2.652-0.425 1.168-0.595 3.652 0.541 4.05 0.426 0.115 0.851 0.03 1.248-0.227 0.682-0.399 1.278-1.285 1.675-2.339C38.911 84.747 39.025 82.808 37.775 82.178zM40.302 72.083c-0.341-0.169-0.681-0.113-0.992 0.086-0.852 0.484-1.534 1.938-1.846 2.822-0.367 1.17-0.397 3.68 0.738 3.995 0.368 0.086 0.766 0.027 1.107-0.173 0.711-0.425 1.333-1.338 1.701-2.48C41.551 74.621 41.581 72.653 40.302 72.083zM41.977 68.918c0.795-0.37 1.42-1.426 1.761-2.681 0.481-1.74 0.255-3.737-0.937-4.221-0.283-0.114-0.569-0.084-0.824 0.058-0.853 0.456-1.561 2.024-1.814 2.965-0.343 1.198-0.229 3.765 0.936 4.021C41.411 69.117 41.693 69.06 41.977 68.918zM45.271 73.424c-0.343-0.171-0.711-0.057-1.079 0.228-0.711 0.571-1.42 1.825-1.646 2.566-0.341 1.112-0.368 3.366 0.651 3.65 0.341 0.085 0.682 0.03 0.995-0.143 0.68-0.37 1.27-1.247 1.589-2.28C46.264 75.876 46.264 73.938 45.271 73.424zM50 5v45.003H5.214V5H50zM42.293 28.466c0-10.663-8.643-19.356-19.283-19.356 1.08 0.925 1.602 2.132 1.602 3.582 0 1.046-0.08 1.812-0.76 2.656-1.041 1.247-2.284 2.334-3.404 3.5-2.003 2.092-4.004 4.226-6.008 6.319-0.96 1.007-1.521 1.971-1.521 3.379 0 2.535 2.083 4.59 4.566 4.59 2.683 0 6.166-3.624 8.449-3.624 1.16 0 2.16 0.967 2.16 2.132 0 0.563-0.241 1.167-0.681 1.53l-7.406 6.238c-1.521 1.287-2.362 3.523-2.362 5.454h23.366v-2.092c0-1.512 0.561-3.12 0.762-4.652C42.175 34.947 42.293 31.686 42.293 28.466zM25.013 18.487c-0.842 0-1.562 0.725-1.562 1.568 0 0.846 0.72 1.57 1.562 1.57 0.882 0 1.602-0.724 1.602-1.57C26.614 19.212 25.895 18.487 25.013 18.487zM94.786 50.003v45.003H50V50.003H94.786zM59.178 61.752c0 3.855 1.473 5.844 5.434 5.844h14.915c3.963 0 5.475-1.988 5.475-5.844v-5.335H79.84v5.298h-5.155v-5.298h-5.231v5.298h-5.152v-5.298h-5.123V61.752zM63.872 69.389v14.367h16.55V69.389H63.872zM85.892 87.958l-5.394-2.222H63.911l-4.851 2.222v2.023h26.831V87.958z" fill="#ffffff" data-fill-palette-color="accent"></path></svg>
                                </g>
                            </svg>
                        </g>
                    </svg>
                </g>
                <defs></defs>
            </svg>
            <rect width="395.52" height="52.35274453473751" fill="none" stroke="none"
                visibility="hidden"></rect>
        </g>
    </svg>
</svg>